<?xml version="1.0" standalone="no"?>
<!DOCTYPE svg PUBLIC "-//W3C//DTD SVG 20010904//EN"
 "http://www.w3.org/TR/2001/REC-SVG-20010904/DTD/svg10.dtd">
<svg version="1.0" xmlns="http://www.w3.org/2000/svg"
 width="400.000000pt" height="400.000000pt" viewBox="0 0 400.000000 400.000000"
 preserveAspectRatio="xMidYMid meet">
<metadata>
Created by potrace 1.14, written by Peter Selinger 2001-2017
</metadata>
<g transform="translate(0.000000,400.000000) scale(0.100000,-0.100000)"
fill="#000000" stroke="none">
<path d="M1729 3895 c-317 -51 -622 -187 -864 -385 -145 -119 -322 -322 -405
-465 -31 -54 -14 -36 55 60 32 44 108 130 169 190 267 266 573 432 945 513
118 25 142 27 371 27 228 -1 254 -3 371 -27 398 -86 750 -288 1015 -585 44
-48 99 -116 123 -150 50 -72 63 -81 29 -22 -51 90 -183 251 -297 361 -244 236
-546 395 -886 468 -130 28 -492 37 -626 15z"/>
<path d="M971 3265 c-165 -36 -362 -176 -455 -324 -76 -120 -102 -285 -59
-382 65 -146 236 -190 408 -105 71 35 185 131 185 155 0 8 -29 -14 -64 -48
-125 -120 -281 -162 -399 -108 -141 64 -174 237 -81 427 52 106 196 248 310
308 220 113 454 90 454 -47 0 -18 -19 -77 -41 -130 -51 -117 -58 -167 -34
-222 34 -74 116 -99 193 -60 66 33 176 161 156 179 -4 4 -9 1 -11 -6 -10 -28
-82 -109 -121 -136 -58 -40 -131 -47 -162 -16 -30 30 -24 80 25 195 59 140 51
229 -28 289 -59 45 -158 56 -276 31z"/>
<path d="M2675 3190 c-96 -19 -230 -83 -320 -153 -162 -126 -221 -194 -540
-622 -261 -350 -368 -469 -499 -554 -96 -62 -120 -67 -40 -8 172 127 267 317
414 827 76 264 124 381 183 448 l20 22 -20 0 c-44 0 -173 -125 -280 -272 -22
-29 -108 -165 -192 -303 -202 -331 -243 -387 -391 -536 -139 -140 -219 -195
-345 -235 -179 -57 -383 -12 -444 97 -22 38 -27 94 -12 118 8 12 11 8 17 -15
9 -40 22 -54 51 -54 36 0 73 42 73 83 0 73 -78 91 -136 33 -31 -31 -34 -39
-34 -93 0 -83 36 -133 128 -176 121 -57 317 -49 471 19 91 40 222 134 306 219
115 115 179 213 376 575 119 220 269 430 343 483 l31 21 -28 -34 c-120 -151
-186 -290 -308 -645 -149 -436 -187 -516 -291 -610 -28 -25 -49 -47 -47 -50 8
-8 115 41 174 80 94 61 296 272 440 459 72 93 177 230 235 305 253 329 491
508 724 542 229 34 429 -102 444 -302 2 -37 0 -81 -6 -98 -6 -18 -7 -31 -2
-31 15 0 25 50 24 125 -1 157 -108 288 -270 330 -61 16 -182 18 -249 5z"/>
<path d="M2634 3106 c-136 -77 -286 -222 -390 -376 -78 -116 -145 -229 -283
-484 -159 -293 -222 -374 -333 -428 -52 -25 -63 -27 -131 -22 -85 8 -127 0
-127 -21 0 -23 46 -29 123 -14 43 8 91 11 117 7 25 -3 83 -7 130 -7 163 -1
231 28 355 153 l90 91 1 -60 c1 -75 35 -145 95 -199 44 -41 155 -97 227 -115
23 -6 60 -16 81 -21 l39 -10 -44 -88 c-70 -138 -89 -268 -59 -387 32 -123 115
-221 235 -279 63 -30 70 -31 195 -31 116 1 139 4 209 28 105 37 201 95 286
174 129 120 190 245 190 392 0 130 -53 201 -160 216 -208 29 -491 -221 -490
-433 0 -53 5 -64 38 -81 71 -38 143 71 77 115 -22 15 -29 15 -53 3 -15 -7 -31
-15 -36 -17 -15 -8 4 69 31 122 49 97 208 231 308 262 109 32 203 3 243 -76
64 -128 -22 -331 -221 -516 -128 -119 -265 -176 -422 -177 -111 -1 -180 22
-243 78 -78 70 -97 118 -96 245 0 91 4 116 31 193 17 49 53 124 79 168 l48 79
75 0 c228 0 592 110 807 244 l42 26 17 -26 c26 -40 55 -133 55 -176 0 -27 4
-38 13 -35 24 8 11 94 -28 175 l-36 78 35 37 c71 75 68 144 -9 182 -34 17 -60
20 -165 20 -118 0 -127 2 -166 27 -113 73 -285 142 -434 174 -102 22 -306 24
-395 5 -184 -40 -319 -130 -383 -256 -11 -22 -57 -79 -102 -127 -60 -65 -97
-95 -143 -117 -80 -39 -177 -55 -274 -46 l-77 7 82 42 c225 118 326 250 575
756 53 107 119 230 147 272 62 95 152 185 230 233 33 20 60 38 60 41 0 10 -28
2 -66 -20z m431 -854 c115 -29 168 -48 278 -100 l97 -45 -142 -47 c-272 -90
-483 -223 -607 -383 -50 -65 -54 -66 -160 -37 -213 59 -321 169 -308 312 9
104 73 182 208 253 120 63 189 76 384 71 127 -3 190 -9 250 -24z m665 -165
c42 -15 66 -53 56 -90 -3 -15 -22 -45 -41 -66 l-35 -39 -98 97 c-84 83 -94 97
-77 103 34 10 158 8 195 -5z m-209 -39 c57 -41 159 -146 159 -164 0 -8 -17
-25 -38 -38 -181 -114 -516 -219 -744 -233 -98 -6 -100 -6 -90 14 23 42 158
176 239 237 109 82 215 142 322 183 47 18 91 32 97 33 6 0 31 -14 55 -32z"/>
<path d="M55 1811 c14 -267 125 -604 283 -858 155 -250 385 -480 635 -635 614
-382 1416 -387 2036 -12 255 155 496 393 653 647 158 254 269 592 283 858 l5
94 -15 -92 c-81 -522 -356 -981 -777 -1295 -260 -194 -494 -303 -787 -366
-117 -24 -143 -26 -371 -27 -229 0 -253 2 -371 27 -295 64 -527 172 -789 367
-419 313 -688 763 -775 1296 l-15 90 5 -94z"/>
<path d="M2076 1821 l-47 -48 30 -13 c36 -15 71 -4 114 36 33 30 33 38 5 58
-35 25 -50 20 -102 -33z"/>
<path d="M1061 1603 c-126 -128 -239 -358 -218 -443 3 -14 20 -33 37 -43 30
-18 31 -18 64 3 40 24 149 142 226 245 29 39 50 61 46 50 -16 -43 -47 -172
-52 -220 -5 -42 -3 -53 14 -68 33 -30 52 -18 72 45 10 31 30 78 44 103 35 60
29 77 -12 34 l-33 -34 7 30 c4 17 22 82 41 145 20 63 36 121 37 129 0 8 -14
23 -32 34 l-32 19 -12 -33 c-32 -92 -128 -233 -245 -359 -96 -105 -126 -104
-94 1 27 86 114 229 180 297 52 53 55 54 97 48 26 -3 44 -2 44 4 0 15 -80 70
-102 70 -11 0 -45 -26 -77 -57z"/>
<path d="M1567 1618 c-109 -110 -215 -368 -178 -436 13 -25 67 -67 98 -76 37
-12 129 86 218 230 33 54 36 56 29 24 -15 -77 -74 -280 -104 -358 -25 -64 -36
-82 -49 -78 -9 3 -121 37 -249 77 -212 65 -235 71 -249 56 -9 -8 -13 -21 -11
-29 3 -7 115 -47 248 -88 133 -41 243 -77 246 -81 7 -12 -91 -153 -127 -183
-93 -79 -193 -75 -306 12 -38 28 -70 24 -53 -7 17 -33 131 -108 190 -125 90
-27 163 -2 241 81 41 44 105 141 122 187 4 11 13 16 22 12 9 -3 41 -13 73 -22
71 -20 95 -39 82 -65 -23 -43 -3 -83 48 -95 15 -4 43 -21 63 -39 43 -39 90
-49 155 -35 35 8 50 8 52 0 2 -6 17 -17 32 -25 26 -13 34 -13 75 0 44 16 46
15 107 -15 72 -34 85 -36 116 -14 37 26 24 115 -21 153 -11 9 -13 20 -7 40 5
17 3 42 -6 67 -7 21 -13 57 -12 79 2 46 -26 98 -83 155 -62 63 -165 77 -279
38 -64 -21 -114 -63 -205 -172 l-30 -36 -70 22 c-38 11 -71 22 -73 23 -2 2 13
49 33 106 41 119 93 310 130 483 26 118 26 120 7 145 -10 15 -28 27 -39 29
-17 3 -21 -4 -26 -42 -15 -104 -123 -302 -222 -403 -33 -35 -66 -63 -73 -63
-6 0 -16 10 -23 21 -29 55 52 263 139 360 l46 51 53 -6 c30 -4 53 -2 53 3 0 5
-19 26 -42 45 -57 49 -87 48 -141 -6z m-389 -583 c68 -19 87 -42 25 -30 -21 4
-47 9 -58 11 -11 1 -22 3 -25 4 -3 1 -9 3 -15 4 -11 1 -15 9 -15 27 0 6 6 9
13 6 7 -3 41 -13 75 -22z m1093 -12 c27 -14 49 -29 49 -33 0 -4 14 -28 31 -54
23 -35 30 -54 26 -75 -3 -15 0 -45 8 -67 8 -21 14 -50 15 -63 0 -31 -56 -84
-133 -122 -50 -26 -64 -29 -84 -20 -12 6 -23 17 -23 25 0 8 39 47 86 88 78 66
144 138 105 113 -11 -6 -13 -4 -8 7 3 9 -13 -3 -36 -26 -52 -52 -213 -146
-249 -146 -23 0 -48 22 -48 43 0 2 40 30 90 61 89 57 118 81 83 70 -19 -6 7
21 63 63 16 13 -21 -9 -83 -47 -238 -149 -314 -177 -321 -119 -3 24 8 34 105
94 105 66 223 151 223 161 0 3 -21 -10 -47 -27 -29 -19 -41 -25 -32 -13 29 34
33 50 8 28 -34 -30 -99 -67 -99 -57 0 4 -9 -6 -20 -24 -31 -51 -59 -65 -105
-52 l-39 11 24 22 c14 11 34 35 45 52 77 119 251 170 366 107z m-916 -43 c28
-10 43 -18 35 -18 -8 0 -37 8 -65 18 -27 10 -43 18 -35 18 8 0 38 -8 65 -18z
m130 -40 c28 -10 43 -18 35 -18 -8 0 -37 8 -65 18 -27 10 -43 18 -35 18 8 0
38 -8 65 -18z m202 -66 c-3 -3 -12 -4 -19 -1 -8 3 -5 6 6 6 11 1 17 -2 13 -5z
m88 -24 c28 -10 43 -18 35 -18 -8 0 -37 8 -65 18 -27 10 -43 18 -35 18 8 0 38
-8 65 -18z m112 -36 c-3 -3 -12 -4 -19 -1 -8 3 -5 6 6 6 11 1 17 -2 13 -5z
m444 -23 c-6 -10 -23 -26 -38 -36 -26 -16 -25 -15 6 19 39 40 46 44 32 17z
m93 -152 c16 -18 26 -43 26 -62 0 -35 -10 -29 -34 18 -9 17 -16 23 -16 15 0
-9 7 -26 16 -38 9 -13 13 -26 10 -29 -6 -6 -50 20 -83 49 l-21 20 31 29 c18
15 35 29 39 29 3 0 18 -14 32 -31z"/>
<path d="M2139 923 c-13 -16 -12 -17 4 -4 16 13 21 21 13 21 -2 0 -10 -8 -17
-17z"/>
<path d="M2028 852 c-124 -82 -128 -84 -78 -61 51 24 155 94 165 109 9 14 9
14 -87 -48z"/>
<path d="M2175 787 c-106 -74 -111 -78 -60 -52 43 22 140 95 125 94 -3 0 -32
-19 -65 -42z"/>
<path d="M2282 710 c-55 -43 -83 -77 -36 -43 44 32 100 82 92 83 -3 0 -29 -18
-56 -40z"/>
<path d="M1971 1599 c-50 -63 -53 -82 -6 -40 50 44 58 41 50 -21 -10 -71 -67
-270 -99 -342 -14 -32 -26 -60 -26 -62 0 -2 13 -10 30 -19 28 -14 30 -14 43 7
7 13 37 62 65 110 58 96 68 130 22 78 l-29 -35 20 70 c40 143 62 242 56 258
-5 13 -65 47 -82 47 -2 0 -22 -23 -44 -51z"/>
</g>
</svg>
